<svg enable-background="new 0 0 645.973 901.192" height="902" viewBox="0 0 645.973 901.192" width="646" xmlns="http://www.w3.org/2000/svg"><path d="m644.973 715.397c0 102.059-143.887 184.794-321.381 184.794s-321.382-82.735-321.382-184.794c0-10.122-2.723-529.839 0-539.518 24.732-87.923 161.49-90.115 321.382-90.115 161.578 0 321.381 100.031 321.381 100.031s0 520.451 0 529.602z" fill="#87c159"/><path d="m323.592 901.192c-86.016 0-166.899-19.269-227.75-54.258-61.024-35.089-94.632-81.803-94.632-131.537 0-1.157-.036-8.969-.095-21.914-1.538-337.858-1.493-512.096.132-517.875 11.478-40.804 46.676-65.824 110.771-78.738 55.662-11.214 125.742-12.106 211.574-12.106 83.631 0 166.704 27.24 221.667 50.092 59.536 24.753 99.845 49.84 100.246 50.091.292.183.469.503.469.848v529.603c0 49.733-33.607 96.447-94.632 131.536-60.851 34.989-141.734 54.258-227.75 54.258zm0-814.428c-85.719 0-155.698.889-211.178 12.067-63.277 12.749-97.989 37.318-109.242 77.319-1.083 3.85-1.971 96.726-.057 517.324.059 12.951.095 20.766.095 21.923 0 101.345 143.723 183.794 320.382 183.794s320.381-82.45 320.381-183.794v-529.045c-4.671-2.869-43.581-26.41-99.519-49.665-54.785-22.775-137.575-49.923-220.862-49.923z"/><path d="m323.592 525.578c166.862 0 305.549-73.42 321.381-166.976v38.557s-2.593 11.241-4.398 16.787c-27.912 85.708-159.824 147.863-316.983 147.863-120.309 0-227.289-34.888-282.635-91.091-38.747-39.347-39.843-57.16-39.843-57.16s-.032-23.709-.032-36.053c0-6.113.257-11.95-.032-18.605 15.834 93.555 155.679 166.678 322.542 166.678z" fill="#1d1d1b"/><path d="m323.592 562.809c-58.983 0-116.38-8.478-165.986-24.518-49.44-15.986-90.023-39.11-117.361-66.872-38.566-39.164-40.083-57.058-40.128-57.8-.002-.06-.034-23.77-.034-36.115 0-1.954.026-3.88.053-5.814.055-4.053.112-8.244-.083-12.748-.023-.528.369-.982.894-1.038.527-.044 1.003.307 1.091.828 7.622 45.037 44.595 86.837 104.109 117.702 59.863 31.046 137.087 48.144 217.446 48.144 80.25 0 157.267-17.15 216.864-48.291 59.131-30.897 95.899-72.751 103.532-117.852.087-.513.546-.872 1.07-.83.518.043.916.477.916.997v38.557c0 .076-.009.151-.025.225-.106.461-2.624 11.348-4.422 16.872-13.613 41.802-52.874 79.684-110.551 106.668-57.734 27.01-131.384 41.885-207.385 41.885zm-321.421-194.013c-.01.983-.023 1.957-.037 2.922-.026 1.924-.052 3.841-.052 5.787 0 12.344.032 36.052.032 36.052.432 6.032 9.257 25.692 39.555 56.46 27.114 27.533 67.417 50.484 116.552 66.372 49.41 15.976 106.594 24.421 165.371 24.421 75.714 0 149.063-14.808 206.535-41.697 57.17-26.748 96.057-64.207 109.497-105.476 1.676-5.148 4.075-15.413 4.349-16.592v-28.99c-10.913 42.159-46.956 80.934-102.591 110.005-59.877 31.288-137.224 48.518-217.79 48.518-80.674 0-158.225-17.177-218.367-48.368-55.794-28.936-91.981-67.488-103.054-109.414z"/><path d="m323.592 712.773c166.862 0 305.549-73.42 321.381-166.976v40.848s-1.484 5.094-4.336 14.993c-25.235 87.581-157.576 147.366-317.045 147.366-154.385 0-271.453-53.062-315.384-139.588-2.907-5.725-6.556-17.992-6.556-17.992s.14-38.662-.149-45.318c15.834 93.557 155.226 166.667 322.089 166.667z" fill="#1d1d1b"/><path d="m323.592 750.004c-153.491 0-271.725-52.387-316.275-140.135-2.914-5.74-6.472-17.655-6.622-18.159-.028-.094-.042-.191-.042-.289.001-.387.137-38.715-.147-45.271-.023-.528.369-.982.894-1.038.526-.051 1.003.307 1.091.828 7.625 45.052 44.517 86.851 103.882 117.696 59.744 31.042 136.887 48.137 217.219 48.137 80.25 0 157.267-17.15 216.864-48.291 59.131-30.897 95.899-72.751 103.532-117.852.087-.513.555-.876 1.069-.83.518.043.917.477.917.997v40.848c0 .095-.014.189-.04.28 0 .001-1.484 5.094-4.335 14.991-25.124 87.192-155.893 148.088-318.007 148.088zm-320.939-158.724c.414 1.373 3.78 12.431 6.446 17.684 44.203 87.063 161.77 139.041 314.492 139.041 77.412 0 151.438-14.471 208.442-40.748 28.316-13.053 51.917-28.651 70.147-46.361 18.744-18.209 31.359-38.239 37.495-59.534 2.583-8.963 4.044-13.988 4.297-14.859v-31.253c-10.912 42.159-46.956 80.934-102.591 110.005-59.877 31.288-137.224 48.518-217.79 48.518-80.647 0-158.118-17.175-218.141-48.362-55.611-28.895-91.706-67.403-102.8-109.303.078 12.954.011 32.96.003 35.172z"/><ellipse cx="323.592" cy="185.794" fill="#fff" rx="321.381" ry="184.794"/><path d="m323.592 371.589c-86.016 0-166.899-19.269-227.75-54.258-61.024-35.09-94.632-81.803-94.632-131.537s33.608-96.447 94.632-131.536c60.85-34.989 141.734-54.258 227.75-54.258s166.899 19.269 227.75 54.258c61.024 35.089 94.632 81.803 94.632 131.536s-33.607 96.447-94.632 131.536c-60.851 34.99-141.734 54.259-227.75 54.259zm0-369.589c-176.659 0-320.382 82.45-320.382 183.794s143.723 183.794 320.382 183.794 320.381-82.45 320.381-183.794-143.723-183.794-320.381-183.794z"/><circle cx="272.133" cy="445.51" fill="#dbf301" r="31.952"/><path d="m272.133 478.463c-18.17 0-32.952-14.782-32.952-32.952s14.782-32.953 32.952-32.953 32.953 14.783 32.953 32.953-14.783 32.952-32.953 32.952zm0-63.905c-17.067 0-30.952 13.885-30.952 30.953 0 17.067 13.885 30.952 30.952 30.952s30.953-13.885 30.953-30.952c0-17.068-13.885-30.953-30.953-30.953z"/><circle cx="272.133" cy="635.368" fill="#dbf301" r="31.952"/><path d="m272.133 668.32c-18.17 0-32.952-14.782-32.952-32.952s14.782-32.953 32.952-32.953 32.953 14.783 32.953 32.953-14.783 32.952-32.953 32.952zm0-63.905c-17.067 0-30.952 13.885-30.952 30.953 0 17.067 13.885 30.952 30.952 30.952s30.953-13.885 30.953-30.952-13.885-30.953-30.953-30.953z"/><circle cx="272.133" cy="819.034" fill="#dbf301" r="31.952"/><path d="m272.133 851.987c-18.17 0-32.952-14.782-32.952-32.952s14.782-32.953 32.952-32.953 32.953 14.783 32.953 32.953-14.783 32.952-32.953 32.952zm0-63.905c-17.067 0-30.952 13.885-30.952 30.953 0 17.067 13.885 30.952 30.952 30.952s30.953-13.885 30.953-30.952c0-17.068-13.885-30.953-30.953-30.953z"/><path d="m341.225 451.368c-1.076 0-1.964-.855-1.998-1.938-.035-1.104.833-2.027 1.937-2.062 107.126-3.341 203.951-37.06 259.004-90.199.795-.766 2.061-.744 2.828.05.767.795.745 2.061-.05 2.828-55.749 53.81-153.565 87.948-261.657 91.319-.022.002-.043.002-.064.002z"/><path d="m341.225 637.624c-1.076 0-1.964-.855-1.998-1.938-.035-1.104.833-2.027 1.937-2.062 107.126-3.341 203.951-37.06 259.004-90.199.795-.766 2.061-.744 2.828.05.767.795.745 2.061-.05 2.828-55.749 53.81-153.565 87.948-261.657 91.319-.022.002-.043.002-.064.002z"/><path d="m341.225 821.015c-1.076 0-1.964-.855-1.998-1.938-.035-1.104.833-2.027 1.937-2.062 107.126-3.341 203.951-37.06 259.004-90.199.795-.766 2.061-.744 2.828.05.767.795.745 2.061-.05 2.828-55.749 53.81-153.565 87.948-261.657 91.319-.022.001-.043.002-.064.002z"/></svg>