<svg xmlns="http://www.w3.org/2000/svg"  viewBox="0 0 64 64" width="512px" height="512px"><g id="_23-Database" data-name="23-Database"><rect x="3" y="3" width="48" height="14" rx="2" fill="#757575"/><path d="M51,5V15a2.00591,2.00591,0,0,1-2,2H5a2.00591,2.00591,0,0,1-2-2V12a2.00591,2.00591,0,0,0,2,2H44a2.00591,2.00591,0,0,0,2-2V5a2.00587,2.00587,0,0,0-2-2h5A2.00587,2.00587,0,0,1,51,5Z" fill="#616161"/><rect x="6" y="17" width="42" height="4" fill="#484848"/><rect x="6" y="35" width="42" height="4" fill="#484848"/><rect x="42" y="17" width="6" height="4" fill="#353535"/><rect x="3" y="21" width="48" height="14" rx="2" fill="#757575"/><path d="M51,23V33a2.00591,2.00591,0,0,1-2,2H5a2.00591,2.00591,0,0,1-2-2V30a2.00591,2.00591,0,0,0,2,2H44a2.00591,2.00591,0,0,0,2-2V23a2.00587,2.00587,0,0,0-2-2h5A2.00587,2.00587,0,0,1,51,23Z" fill="#616161"/><rect x="3" y="39" width="48" height="14" rx="2" fill="#757575"/><path d="M51,41V51a2.00591,2.00591,0,0,1-2,2H5a2.00591,2.00591,0,0,1-2-2V48a2.00591,2.00591,0,0,0,2,2H44a2.00591,2.00591,0,0,0,2-2V41a2.00587,2.00587,0,0,0-2-2h5A2.00587,2.00587,0,0,1,51,41Z" fill="#616161"/><circle cx="10" cy="10" r="2" fill="#ef5350"/><circle cx="18" cy="10" r="2" fill="#ffb74d"/><circle cx="10" cy="28" r="2" fill="#ef5350"/><circle cx="10" cy="46" r="2" fill="#ef5350"/><rect x="24" y="8" width="22" height="4" fill="#bdbdbd"/><circle cx="18" cy="28" r="2" fill="#ffb74d"/><rect x="24" y="26" width="22" height="4" fill="#bdbdbd"/><circle cx="18" cy="46" r="2" fill="#ffb74d"/><path d="M12,10a1.99718,1.99718,0,0,1-3,1.73A1.99647,1.99647,0,0,0,9,8.27,1.99726,1.99726,0,0,1,12,10Z" fill="#e53935"/><path d="M20,10a1.99718,1.99718,0,0,1-3,1.73,1.99647,1.99647,0,0,0,0-3.46A1.99726,1.99726,0,0,1,20,10Z" fill="#ffa726"/><path d="M12,28a1.99718,1.99718,0,0,1-3,1.73,1.99647,1.99647,0,0,0,0-3.46A1.99726,1.99726,0,0,1,12,28Z" fill="#e53935"/><path d="M12,46a1.99718,1.99718,0,0,1-3,1.73,1.99647,1.99647,0,0,0,0-3.46A1.99726,1.99726,0,0,1,12,46Z" fill="#e53935"/><path d="M20,28a1.99718,1.99718,0,0,1-3,1.73,1.99647,1.99647,0,0,0,0-3.46A1.99726,1.99726,0,0,1,20,28Z" fill="#ffa726"/><path d="M20,46a1.99718,1.99718,0,0,1-3,1.73,1.99647,1.99647,0,0,0,0-3.46A1.99726,1.99726,0,0,1,20,46Z" fill="#ffa726"/><rect x="24" y="44" width="22" height="4" fill="#bdbdbd"/><path d="M48,31a24.154,24.154,0,0,1-13,4V45c0,11.78571,13,16,13,16s13-4.21429,13-16V35A24.154,24.154,0,0,1,48,31Z" fill="#64b5f6"/><path d="M61,35V45c0,11.79-13,16-13,16a23.13141,23.13141,0,0,1-4.49-2.18C45.91,57.89,56,53.38,56,43V34.42A22.27024,22.27024,0,0,0,61,35Z" fill="#42a5f5"/><path d="M10,13a3,3,0,1,0-3-3A3.00328,3.00328,0,0,0,10,13Zm0-4a1,1,0,1,1-1,1A1.00067,1.00067,0,0,1,10,9Zm8,4a3,3,0,1,0-3-3A3.00328,3.00328,0,0,0,18,13Zm0-4a1,1,0,1,1-1,1A1.00067,1.00067,0,0,1,18,9ZM7,28a3,3,0,1,0,3-3A3.00328,3.00328,0,0,0,7,28Zm4,0a1,1,0,1,1-1-1A1.00067,1.00067,0,0,1,11,28ZM7,46a3,3,0,1,0,3-3A3.00328,3.00328,0,0,0,7,46Zm4,0a1,1,0,1,1-1-1A1.00067,1.00067,0,0,1,11,46ZM24,13H46a.99943.99943,0,0,0,1-1V8a.99943.99943,0,0,0-1-1H24a.99943.99943,0,0,0-1,1v4A.99943.99943,0,0,0,24,13Zm1-4H45v2H25ZM15,28a3,3,0,1,0,3-3A3.00328,3.00328,0,0,0,15,28Zm4,0a1,1,0,1,1-1-1A1.00067,1.00067,0,0,1,19,28ZM15,46a3,3,0,1,0,3-3A3.00328,3.00328,0,0,0,15,46Zm4,0a1,1,0,1,1-1-1A1.00067,1.00067,0,0,1,19,46Zm6-1v2h6a1,1,0,0,1,0,2H24a.99943.99943,0,0,1-1-1V44a.99943.99943,0,0,1,1-1h7a1,1,0,0,1,0,2ZM45,27.51367V27H25v2H41a1,1,0,0,1,0,2H24a.99943.99943,0,0,1-1-1V26a.99943.99943,0,0,1,1-1H46a.99943.99943,0,0,1,1,1v1.51367a1,1,0,1,1-2,0ZM32,52H5a1.00067,1.00067,0,0,1-1-1V41a1.00067,1.00067,0,0,1,1-1H31a1,1,0,0,0,0-2H7V36H31a1,1,0,0,0,0-2H5a1.00067,1.00067,0,0,1-1-1V23a1.00067,1.00067,0,0,1,1-1H49a1.00067,1.00067,0,0,1,1,1v5a1,1,0,0,0,2,0V23a3.00328,3.00328,0,0,0-3-3V18a3.00328,3.00328,0,0,0,3-3V5a3.00328,3.00328,0,0,0-3-3H5A3.00328,3.00328,0,0,0,2,5V15a3.00328,3.00328,0,0,0,3,3v2a3.00328,3.00328,0,0,0-3,3V33a3.00328,3.00328,0,0,0,3,3v2a3.00328,3.00328,0,0,0-3,3V51a3.00328,3.00328,0,0,0,3,3H32a1,1,0,0,0,0-2ZM4,15V5A1.00067,1.00067,0,0,1,5,4H49a1.00067,1.00067,0,0,1,1,1V15a1.00067,1.00067,0,0,1-1,1H5A1.00067,1.00067,0,0,1,4,15Zm3,3H47v2H7ZM61,34a23.36039,23.36039,0,0,1-12.41309-3.80957,1.00594,1.00594,0,0,0-1.17382,0A23.36039,23.36039,0,0,1,35,34a.99943.99943,0,0,0-1,1V45c0,12.37012,13.55469,16.90723,13.69141,16.95117a.99951.99951,0,0,0,.61718,0C48.44531,61.90723,62,57.37012,62,45V35A.99943.99943,0,0,0,61,34ZM60,45c0,9.92188-10.08984,14.21387-12,14.9375C46.08984,59.21387,36,54.92188,36,45V35.97754a25.3404,25.3404,0,0,0,12-3.77539,25.3404,25.3404,0,0,0,12,3.77539ZM46,49.58594l8.293-8.293A.99989.99989,0,0,1,55.707,42.707l-9,9a.99963.99963,0,0,1-1.41406,0l-5-5A.99989.99989,0,0,1,41.707,45.293Z"/></g></svg>